<svg xmlns="http://www.w3.org/2000/svg" style="display: none;"><symbol id="information" viewBox="0 0 512 512"><title>information</title><g> <g> <path d="M256,0C114.497,0,0,114.507,0,256c0,141.503,114.507,256,256,256c141.503,0,256-114.507,256-256 C512,114.497,397.492,0,256,0z M256,472c-119.393,0-216-96.615-216-216c0-119.393,96.615-216,216-216 c119.393,0,216,96.615,216,216C472,375.393,375.384,472,256,472z"/> </g> </g><g> <g> <path d="M256,214.33c-11.046,0-20,8.954-20,20v128.793c0,11.046,8.954,20,20,20s20-8.955,20-20.001V234.33 C276,223.284,267.046,214.33,256,214.33z"/> </g> </g><g> <g> <circle cx="256" cy="162.84" r="27"/> </g> </g></symbol><symbol id="menu" viewBox="0 -53 384 384"><title>menu</title><path d="m368 154.667969h-352c-8.832031 0-16-7.167969-16-16s7.167969-16 16-16h352c8.832031 0 16 7.167969 16 16s-7.167969 16-16 16zm0 0"/><path d="m368 32h-352c-8.832031 0-16-7.167969-16-16s7.167969-16 16-16h352c8.832031 0 16 7.167969 16 16s-7.167969 16-16 16zm0 0"/><path d="m368 277.332031h-352c-8.832031 0-16-7.167969-16-16s7.167969-16 16-16h352c8.832031 0 16 7.167969 16 16s-7.167969 16-16 16zm0 0"/></symbol><symbol id="copyright" viewBox="0 0 512 512"><title>copyright</title><path d="m256 512c-68.38 0-132.667-26.629-181.02-74.98-48.351-48.353-74.98-112.64-74.98-181.02s26.629-132.667 74.98-181.02c48.353-48.351 112.64-74.98 181.02-74.98s132.667 26.629 181.02 74.98c48.351 48.353 74.98 112.64 74.98 181.02s-26.629 132.667-74.98 181.02c-48.353 48.351-112.64 74.98-181.02 74.98zm0-472c-119.103 0-216 96.897-216 216s96.897 216 216 216 216-96.897 216-216-96.897-216-216-216zm90.313 307.924c7.81-7.811 7.811-20.474 0-28.284-7.812-7.811-20.475-7.81-28.284 0-35.092 35.09-92.188 35.092-127.28 0-16.998-16.999-26.36-39.6-26.36-63.64s9.362-46.641 26.36-63.64c35.092-35.092 92.188-35.09 127.28 0 7.811 7.811 20.474 7.811 28.284 0s7.81-20.474 0-28.284c-50.688-50.687-133.162-50.686-183.848 0-24.555 24.554-38.077 57.2-38.077 91.924s13.522 67.37 38.077 91.924c25.343 25.343 58.633 38.015 91.924 38.015s66.581-12.672 91.924-38.015z"/></symbol><symbol id="black-circle" viewBox="0 0 29.107 29.107"><title>black-circle</title><path d="M14.554,0C6.561,0,0,6.562,0,14.552c0,7.996,6.561,14.555,14.554,14.555c7.996,0,14.553-6.559,14.553-14.555 C29.106,6.562,22.55,0,14.554,0z"/></symbol><symbol id="share" viewBox="-21 0 512 512"><title>share</title><path d="m389.332031 160c-44.09375 0-80-35.882812-80-80s35.90625-80 80-80c44.097657 0 80 35.882812 80 80s-35.902343 80-80 80zm0-128c-26.453125 0-48 21.523438-48 48s21.546875 48 48 48 48-21.523438 48-48-21.546875-48-48-48zm0 0"/><path d="m389.332031 512c-44.09375 0-80-35.882812-80-80s35.90625-80 80-80c44.097657 0 80 35.882812 80 80s-35.902343 80-80 80zm0-128c-26.453125 0-48 21.523438-48 48s21.546875 48 48 48 48-21.523438 48-48-21.546875-48-48-48zm0 0"/><path d="m80 336c-44.097656 0-80-35.882812-80-80s35.902344-80 80-80 80 35.882812 80 80-35.902344 80-80 80zm0-128c-26.453125 0-48 21.523438-48 48s21.546875 48 48 48 48-21.523438 48-48-21.546875-48-48-48zm0 0"/><path d="m135.703125 240.425781c-5.570313 0-10.988281-2.902343-13.910156-8.0625-4.375-7.679687-1.707031-17.453125 5.972656-21.824219l197.953125-112.855468c7.65625-4.414063 17.449219-1.726563 21.800781 5.976562 4.375 7.679688 1.707031 17.449219-5.972656 21.824219l-197.953125 112.851563c-2.496094 1.40625-5.203125 2.089843-7.890625 2.089843zm0 0"/><path d="m333.632812 416.425781c-2.6875 0-5.398437-.683593-7.894531-2.109375l-197.953125-112.855468c-7.679687-4.371094-10.34375-14.144532-5.972656-21.824219 4.351562-7.699219 14.125-10.367188 21.804688-5.972657l197.949218 112.851563c7.679688 4.375 10.347656 14.144531 5.976563 21.824219-2.945313 5.183594-8.363281 8.085937-13.910157 8.085937zm0 0"/></symbol><symbol id="mouse" viewBox="-105 0 512 512.00002"><title>mouse</title><path d="m150.601562 0c-83.042968 0-150.601562 67.558594-150.601562 150.601562v210.796876c0 83.042968 67.558594 150.601562 150.601562 150.601562 83.042969 0 150.601563-67.558594 150.601563-150.601562v-210.796876c0-83.042968-67.558594-150.601562-150.601563-150.601562zm119.882813 361.398438c0 66.101562-53.78125 119.882812-119.882813 119.882812-66.101562 0-119.882812-53.78125-119.882812-119.882812v-210.796876c0-66.101562 53.78125-119.882812 119.882812-119.882812 66.101563 0 119.882813 53.78125 119.882813 119.882812zm0 0"/><path d="m150.605469 101.851562c-8.484375 0-15.359375 6.875-15.359375 15.359376v70.695312c0 8.480469 6.875 15.359375 15.359375 15.359375 8.480469 0 15.359375-6.878906 15.359375-15.359375v-70.695312c0-8.484376-6.875-15.359376-15.359375-15.359376zm0 0"/></symbol><symbol id="close" viewBox="0 0 329.26933 329"><title>close</title><path d="m21.339844 329.398438c-5.460938 0-10.925782-2.089844-15.082032-6.25-8.34375-8.339844-8.34375-21.824219 0-30.164063l286.589844-286.59375c8.339844-8.339844 21.824219-8.339844 30.164063 0 8.34375 8.339844 8.34375 21.824219 0 30.164063l-286.589844 286.59375c-4.183594 4.179687-9.621094 6.25-15.082031 6.25zm0 0"/><path d="m307.929688 329.398438c-5.460938 0-10.921876-2.089844-15.082032-6.25l-286.589844-286.59375c-8.34375-8.339844-8.34375-21.824219 0-30.164063 8.339844-8.339844 21.820313-8.339844 30.164063 0l286.589844 286.59375c8.34375 8.339844 8.34375 21.824219 0 30.164063-4.160157 4.179687-9.621094 6.25-15.082031 6.25zm0 0"/></symbol><symbol id="right-arrow" viewBox="0 0 512 512"><title>right-arrow</title><path d="M506.134,241.843c-0.006-0.006-0.011-0.013-0.018-0.019l-104.504-104c-7.829-7.791-20.492-7.762-28.285,0.068 c-7.792,7.829-7.762,20.492,0.067,28.284L443.558,236H20c-11.046,0-20,8.954-20,20c0,11.046,8.954,20,20,20h423.557 l-70.162,69.824c-7.829,7.792-7.859,20.455-0.067,28.284c7.793,7.831,20.457,7.858,28.285,0.068l104.504-104 c0.006-0.006,0.011-0.013,0.018-0.019C513.968,262.339,513.943,249.635,506.134,241.843z"/></symbol><symbol id="play" viewBox="0 0 494.148 494.148"><title>play</title><path d="M405.284,201.188L130.804,13.28C118.128,4.596,105.356,0,94.74,0C74.216,0,61.52,16.472,61.52,44.044v406.124 c0,27.54,12.68,43.98,33.156,43.98c10.632,0,23.2-4.6,35.904-13.308l274.608-187.904c17.66-12.104,27.44-28.392,27.44-45.884 C432.632,229.572,422.964,213.288,405.284,201.188z"/></symbol><symbol id="play-button-1" viewBox="0 0 30.051 30.051"><title>play-button-1</title><path d="M19.982,14.438l-6.24-4.536c-0.229-0.166-0.533-0.191-0.784-0.062c-0.253,0.128-0.411,0.388-0.411,0.669v9.069 c0,0.284,0.158,0.543,0.411,0.671c0.107,0.054,0.224,0.081,0.342,0.081c0.154,0,0.31-0.049,0.442-0.146l6.24-4.532 c0.197-0.145,0.312-0.369,0.312-0.607C20.295,14.803,20.177,14.58,19.982,14.438z"/><path d="M15.026,0.002C6.726,0.002,0,6.728,0,15.028c0,8.297,6.726,15.021,15.026,15.021c8.298,0,15.025-6.725,15.025-15.021 C30.052,6.728,23.324,0.002,15.026,0.002z M15.026,27.542c-6.912,0-12.516-5.601-12.516-12.514c0-6.91,5.604-12.518,12.516-12.518 c6.911,0,12.514,5.607,12.514,12.518C27.541,21.941,21.937,27.542,15.026,27.542z"/></symbol><symbol id="play-button" viewBox="0 0 142.448 142.448"><title>play-button</title><path style="fill:#1D1D1B;" d="M142.411,68.9C141.216,31.48,110.968,1.233,73.549,0.038c-20.361-0.646-39.41,7.104-53.488,21.639 C6.527,35.65-0.584,54.071,0.038,73.549c1.194,37.419,31.442,67.667,68.861,68.861c0.779,0.025,1.551,0.037,2.325,0.037 c19.454,0,37.624-7.698,51.163-21.676C135.921,106.799,143.033,88.377,142.411,68.9z M111.613,110.336 c-10.688,11.035-25.032,17.112-40.389,17.112c-0.614,0-1.228-0.01-1.847-0.029c-29.532-0.943-53.404-24.815-54.348-54.348 c-0.491-15.382,5.122-29.928,15.806-40.958c10.688-11.035,25.032-17.112,40.389-17.112c0.614,0,1.228,0.01,1.847,0.029 c29.532,0.943,53.404,24.815,54.348,54.348C127.91,84.76,122.296,99.306,111.613,110.336z"/><path style="fill:#1D1D1B;" d="M94.585,67.086L63.001,44.44c-3.369-2.416-8.059-0.008-8.059,4.138v45.293 c0,4.146,4.69,6.554,8.059,4.138l31.583-22.647C97.418,73.331,97.418,69.118,94.585,67.086z"/></symbol></svg>